<?xml version="1.0" standalone="no"?>
<!DOCTYPE svg PUBLIC "-//W3C//DTD SVG 20010904//EN"
 "http://www.w3.org/TR/2001/REC-SVG-20010904/DTD/svg10.dtd">
<svg version="1.0" xmlns="http://www.w3.org/2000/svg"
 width="512.000000pt" height="512.000000pt" viewBox="0 0 512.000000 512.000000"
 preserveAspectRatio="xMidYMid meet">
<metadata>
Created by potrace 1.15, written by Peter Selinger 2001-2017
</metadata>
<g transform="translate(0.000000,512.000000) scale(0.100000,-0.100000)"
fill="#000000" stroke="none">
<path d="M0 2560 l0 -2560 2560 0 2560 0 0 2560 0 2560 -2560 0 -2560 0 0
-2560z m2945 1400 c222 -32 413 -119 534 -244 24 -25 48 -43 53 -40 5 3 7 1 6
-4 -2 -5 12 -34 30 -64 75 -125 101 -282 67 -408 -9 -36 -17 -71 -18 -77 0 -7
-3 -13 -6 -13 -3 0 -13 -14 -20 -32 -26 -58 -68 -112 -142 -183 -40 -38 -72
-74 -70 -80 1 -5 -1 -7 -5 -2 -4 4 -19 0 -33 -10 -127 -83 -323 -148 -510
-169 l-64 -7 34 -18 c19 -9 38 -15 44 -11 5 3 7 2 3 -3 -4 -4 12 -20 35 -36
23 -15 59 -49 81 -74 93 -113 135 -213 196 -480 59 -256 102 -303 246 -270
108 25 215 81 337 177 38 31 49 22 124 -103 82 -137 82 -147 -14 -205 -174
-106 -314 -160 -487 -190 -313 -55 -456 94 -570 591 -14 61 -37 164 -52 230
-42 193 -91 301 -152 334 -11 6 -43 11 -71 11 -60 0 -53 17 -76 -200 -67 -635
-201 -977 -423 -1077 -41 -19 -80 -27 -141 -31 -208 -12 -375 82 -510 287 -38
58 -100 178 -106 206 -2 6 -12 42 -23 80 -96 321 -88 669 24 1003 52 159 158
358 255 483 16 20 26 39 24 43 -3 3 -2 4 1 2 3 -2 29 21 56 52 28 31 80 83
114 116 35 32 61 63 57 69 -3 5 -1 7 5 3 6 -3 40 16 76 43 220 167 487 268
801 305 66 7 224 5 290 -4z"/>
<path d="M2633 3640 c-97 -10 -211 -37 -292 -67 -91 -34 -201 -95 -194 -106 3
-6 1 -7 -5 -3 -32 19 -236 -174 -326 -309 -46 -69 -114 -186 -116 -200 -1 -2
-11 -28 -24 -57 -90 -205 -145 -519 -132 -743 21 -336 140 -544 321 -562 41
-4 56 -1 84 19 73 50 136 216 171 455 22 150 47 510 37 535 -3 9 -34 31 -69
50 -35 18 -82 52 -105 75 -39 39 -43 47 -43 94 0 30 7 63 18 81 l17 30 75 -6
c41 -3 91 -9 112 -12 l36 -6 7 68 c25 248 104 363 247 364 58 0 95 -29 107
-82 10 -41 -3 -173 -34 -361 l-5 -28 88 6 c422 30 657 174 670 408 3 49 -1 81
-14 115 -29 76 -154 195 -185 176 -7 -4 -9 -3 -5 4 10 16 -85 46 -204 62 -74
11 -134 11 -237 0z"/>
</g>
</svg>
